<svg width="36" height="37" viewBox="0 0 36 37" fill="none" xmlns="http://www.w3.org/2000/svg">
<rect y="0.5" width="36" height="36" rx="18" fill="#D7FED8"/>
<path d="M23.831 13.3143C24.2046 13.2179 24.5964 13.1667 25 13.1667C27.5773 13.1667 29.6667 15.256 29.6667 17.8333C29.6667 20.4106 27.5773 22.5 25 22.5C24.586 22.5 24.1844 22.4461 23.8022 22.3448M23.831 13.3143C23.8326 13.2653 23.8334 13.2161 23.8334 13.1667C23.8334 10.5893 21.744 8.5 19.1667 8.5C16.9295 8.5 15.06 10.0743 14.6055 12.1755M23.831 13.3143C23.8064 14.1089 23.583 14.8535 23.2091 15.5M23.8022 22.3448C23.8228 22.2051 23.8334 22.0621 23.8334 21.9167C23.8334 20.5056 22.8313 19.3285 21.5 19.0583M23.8022 22.3448C23.595 23.7526 22.382 24.8333 20.9167 24.8333H20.3334C17.7561 24.8333 15.6667 26.9227 15.6667 29.5M14.6055 12.1755C14.2011 12.0612 13.7744 12 13.3334 12C10.756 12 8.66671 14.0893 8.66671 16.6667C8.66671 17.12 8.73136 17.5583 8.85195 17.9727M14.6055 12.1755C15.7851 12.509 16.7748 13.2946 17.3758 14.3333M8.85195 17.9727C7.39667 18.3971 6.33337 19.7411 6.33337 21.3333C6.33337 23.2664 7.90038 24.8333 9.83337 24.8333C11.3573 24.8333 12.6537 23.8594 13.1342 22.5M8.85195 17.9727C8.95745 18.3353 9.10575 18.6797 9.29103 19" stroke="#4CAF50" stroke-width="1.5" stroke-linecap="round" stroke-linejoin="round"/>
<path d="M17.8088 18.7007C17.2133 19.2745 16.1952 19.3735 15.325 18.8842C14.4547 18.3949 14.0104 17.4736 14.1912 16.6666" stroke="#4CAF50" stroke-width="1.5" stroke-linecap="round"/>
</svg>
