<svg width="36" height="37" viewBox="0 0 36 37" fill="none" xmlns="http://www.w3.org/2000/svg">
<rect y="0.5" width="36" height="36" rx="18" fill="#D7FED8"/>
<path d="M13.3333 23.6667H21.8071C27.0426 23.6667 27.8388 20.3776 28.8045 15.5806C29.0831 14.197 29.2224 13.5052 28.8874 13.0443C28.5525 12.5834 27.9105 12.5834 26.6264 12.5834H11" stroke="#4CAF50" stroke-width="1.5" stroke-linecap="round"/>
<path d="M13.3333 23.6667L10.2751 9.10079C10.0155 8.06206 9.08217 7.33337 8.01148 7.33337H6.91663" stroke="#4CAF50" stroke-width="1.5" stroke-linecap="round"/>
<path d="M14.36 23.6666H13.88C12.2894 23.6666 11 25.0098 11 26.6666C11 26.9427 11.2149 27.1666 11.48 27.1666H24.4167" stroke="#4CAF50" stroke-width="1.5" stroke-linecap="round" stroke-linejoin="round"/>
<path d="M16.25 30.6666C17.2165 30.6666 18 29.8831 18 28.9166C18 27.9501 17.2165 27.1666 16.25 27.1666C15.2835 27.1666 14.5 27.9501 14.5 28.9166C14.5 29.8831 15.2835 30.6666 16.25 30.6666Z" stroke="#4CAF50" stroke-width="1.5"/>
<path d="M24.4166 30.6666C25.3831 30.6666 26.1666 29.8831 26.1666 28.9166C26.1666 27.9501 25.3831 27.1666 24.4166 27.1666C23.4501 27.1666 22.6666 27.9501 22.6666 28.9166C22.6666 29.8831 23.4501 30.6666 24.4166 30.6666Z" stroke="#4CAF50" stroke-width="1.5"/>
</svg>
