<svg width="36" height="37" viewBox="0 0 36 37" fill="none" xmlns="http://www.w3.org/2000/svg">
<rect y="0.5" width="36" height="36" rx="18" fill="#D7FED8"/>
<path d="M28.5 28.3333C27.7495 26.8321 26.1667 24.8616 26.1667 23.1158C26.1667 21.1344 26.595 18.6897 25.674 16.8479C25.2853 16.0704 25 15.2829 25 14.3983V10.1666C25 9.89049 24.7762 9.66663 24.5 9.66663C22.8432 9.66663 21.5 11.0098 21.5 12.6666M13.3334 26L17.574 28.6503C17.8548 28.8259 18.095 29.0592 18.2788 29.3346L19.1667 30.6666" stroke="#4CAF50" stroke-width="1.5" stroke-linecap="round"/>
<path d="M9.86523 22.5C9.92902 23.7795 10.1194 24.5778 10.6874 25.1458C11.5416 26 12.9166 26 15.6664 26C18.4163 26 19.7912 26 20.6455 25.1458C21.4998 24.2915 21.4998 22.9165 21.4998 20.1667V13.1667C21.4998 10.4169 21.4998 9.04192 20.6455 8.18764C19.7912 7.33337 18.4163 7.33337 15.6664 7.33337C12.9166 7.33337 11.5416 7.33337 10.6874 8.18764C10.1194 8.75566 9.92902 9.55387 9.86523 10.8334" stroke="#4CAF50" stroke-width="1.5" stroke-linejoin="round"/>
<path d="M8.95833 13.75H10.7083C11.5138 13.75 12.1667 13.0971 12.1667 12.2917C12.1667 11.4863 11.5138 10.8334 10.7083 10.8334H8.95833C8.15291 10.8334 7.5 11.4863 7.5 12.2917C7.5 13.0971 8.15291 13.75 8.95833 13.75ZM8.95833 13.75H11.875C12.6804 13.75 13.3333 14.403 13.3333 15.2084C13.3333 16.0138 12.6804 16.6667 11.875 16.6667H8.95833M8.95833 13.75C8.15291 13.75 7.5 14.403 7.5 15.2084C7.5 16.0138 8.15291 16.6667 8.95833 16.6667M8.95833 16.6667H10.7083C11.5138 16.6667 12.1667 17.3196 12.1667 18.125C12.1667 18.9305 11.5138 19.5834 10.7083 19.5834H8.95833M8.95833 16.6667C8.15291 16.6667 7.5 17.3196 7.5 18.125C7.5 18.9305 8.15291 19.5834 8.95833 19.5834M8.95833 19.5834H10.125C10.9304 19.5834 11.5833 20.2362 11.5833 21.0417C11.5833 21.8472 10.9304 22.5 10.125 22.5H8.95833C8.15291 22.5 7.5 21.8472 7.5 21.0417C7.5 20.2362 8.15291 19.5834 8.95833 19.5834Z" stroke="#4CAF50" stroke-width="1.5" stroke-linecap="round"/>
<path d="M15.6665 22.5H15.677" stroke="#4CAF50" stroke-width="2" stroke-linecap="round" stroke-linejoin="round"/>
</svg>
