<svg width="52" height="52" viewBox="0 0 52 52" fill="none" xmlns="http://www.w3.org/2000/svg">
<path d="M16.25 19.5C18.0449 19.5 19.5 18.0449 19.5 16.25C19.5 14.4551 18.0449 13 16.25 13C14.4551 13 13 14.4551 13 16.25C13 18.0449 14.4551 19.5 16.25 19.5Z" stroke="#555555" stroke-width="1.5" stroke-linecap="round" stroke-linejoin="round"/>
<path d="M5.41699 26.0003C5.41699 16.2973 5.41699 11.4457 8.43135 8.43135C11.4457 5.41699 16.2973 5.41699 26.0003 5.41699C35.7033 5.41699 40.5549 5.41699 43.5694 8.43135C46.5837 11.4457 46.5837 16.2973 46.5837 26.0003C46.5837 35.7033 46.5837 40.5549 43.5694 43.5694C40.5549 46.5837 35.7033 46.5837 26.0003 46.5837C16.2973 46.5837 11.4457 46.5837 8.43135 43.5694C5.41699 40.5549 5.41699 35.7033 5.41699 26.0003Z" stroke="#555555" stroke-width="1.5"/>
<path d="M10.833 45.4999C20.3067 34.1791 30.9269 19.2487 46.5776 29.3418" stroke="#555555" stroke-width="1.5"/>
</svg>
