<svg width="19" height="19" viewBox="0 0 19 19" fill="none" xmlns="http://www.w3.org/2000/svg">
<path fill-rule="evenodd" clip-rule="evenodd" d="M10 4.85775C10.971 4.51455 11.6667 3.58852 11.6667 2.5C11.6667 1.11929 10.5474 0 9.16667 0C7.78595 0 6.66667 1.11929 6.66667 2.5C6.66667 3.58852 7.36234 4.51455 8.33333 4.85775V8.33333H5C3.15905 8.33333 1.66667 9.82572 1.66667 11.6667V13.4756C0.695673 13.8188 0 14.7448 0 15.8333C0 17.214 1.11929 18.3333 2.5 18.3333C3.88071 18.3333 5 17.214 5 15.8333C5 14.7448 4.30433 13.8188 3.33333 13.4756V11.6667C3.33333 10.7462 4.07953 10 5 10H8.33333L8.33333 13.4756C7.36234 13.8188 6.66667 14.7448 6.66667 15.8333C6.66667 17.214 7.78595 18.3333 9.16667 18.3333C10.5474 18.3333 11.6667 17.214 11.6667 15.8333C11.6667 14.7448 10.971 13.8188 10 13.4756L10 10H13.3333C14.2538 10 15 10.7462 15 11.6667V13.4756C14.029 13.8188 13.3333 14.7448 13.3333 15.8333C13.3333 17.214 14.4526 18.3333 15.8333 18.3333C17.214 18.3333 18.3333 17.214 18.3333 15.8333C18.3333 14.7448 17.6377 13.8188 16.6667 13.4756V11.6667C16.6667 9.82572 15.1743 8.33333 13.3333 8.33333H10V4.85775ZM9.16667 1.66667C9.6269 1.66667 10 2.03976 10 2.5C10 2.96024 9.6269 3.33333 9.16667 3.33333C8.70643 3.33333 8.33333 2.96024 8.33333 2.5C8.33333 2.03976 8.70643 1.66667 9.16667 1.66667ZM15.8333 15C15.3731 15 15 15.3731 15 15.8333C15 16.2936 15.3731 16.6667 15.8333 16.6667C16.2936 16.6667 16.6667 16.2936 16.6667 15.8333C16.6667 15.3731 16.2936 15 15.8333 15ZM9.16667 15C9.6269 15 10 15.3731 10 15.8333C10 16.2936 9.6269 16.6667 9.16667 16.6667C8.70643 16.6667 8.33333 16.2936 8.33333 15.8333C8.33333 15.3731 8.70643 15 9.16667 15ZM2.5 15C2.96024 15 3.33333 15.3731 3.33333 15.8333C3.33333 16.2936 2.96024 16.6667 2.5 16.6667C2.03976 16.6667 1.66667 16.2936 1.66667 15.8333C1.66667 15.3731 2.03976 15 2.5 15Z" fill="white"/>
</svg>
