<svg width="14" height="13" viewBox="0 0 14 13" fill="none" xmlns="http://www.w3.org/2000/svg">
<path d="M6.75 12.0833C6.20453 12.0833 5.68347 11.8639 4.64129 11.4249C2.04709 10.3323 0.75 9.78593 0.75 8.86693V2.44489M6.75 12.0833C7.29547 12.0833 7.81653 11.8639 8.85873 11.4249C11.4529 10.3323 12.75 9.78593 12.75 8.86693V2.44489M6.75 12.0833V5.43613M0.75 2.44489C0.75 2.85319 1.28438 3.11101 2.35315 3.62667L4.30061 4.56627C5.50253 5.1462 6.10353 5.43613 6.75 5.43613M0.75 2.44489C0.75 2.0366 1.28438 1.77878 2.35315 1.26313L3.41667 0.75M12.75 2.44489C12.75 2.85319 12.2156 3.11101 11.1469 3.62667L9.1994 4.56627C7.99747 5.1462 7.39647 5.43613 6.75 5.43613M12.75 2.44489C12.75 2.0366 12.2156 1.77877 11.1469 1.26313L10.1131 0.76434M2.75 6.10087L4.08333 6.7656" stroke="#083A96" stroke-width="1.5" stroke-linecap="round" stroke-linejoin="round"/>
</svg>
