<svg width="91" height="64" viewBox="0 0 91 64" fill="none" xmlns="http://www.w3.org/2000/svg">
<path d="M0.70206 3.30979C1.35285 1.45885 3.3809 0.485863 5.23189 1.13665L6.65956 1.63856C9.57989 2.66516 12.0603 3.53711 14.0122 4.49489C16.0994 5.51898 17.8892 6.78058 19.2353 8.75042C20.5709 10.705 21.1224 12.8494 21.3769 15.2007C21.4908 16.2532 21.5509 17.4182 21.5826 18.6987H71.9734C79.9548 18.6987 87.1396 18.6987 89.2422 21.4322C91.3454 24.1657 90.5231 28.2844 88.8789 36.522L86.5115 48.0075C85.0189 55.2496 84.2724 58.8704 81.6591 61.0001C79.0458 63.1297 75.3488 63.1297 67.9547 63.1297H42.836C29.6254 63.1297 23.0202 63.1297 18.9163 58.8012C14.8123 54.4723 14.5128 49.8743 14.5128 35.9406V23.617C14.5128 20.112 14.5079 17.7663 14.313 15.9653C14.1267 14.2442 13.7965 13.3848 13.369 12.7592C12.9519 12.1488 12.3187 11.5783 10.8824 10.8736C9.35313 10.1232 7.27487 9.38643 4.11255 8.27461L2.87525 7.83958C1.02426 7.18884 0.0513208 5.16079 0.70206 3.30979Z" fill="#4CAF50"/>
<path d="M23.336 46.112C23.0693 46.112 22.824 46.0747 22.6 46V34.448H26.424C27.1387 34.448 27.8 34.56 28.408 34.784C29.0267 34.9973 29.5227 35.3493 29.896 35.84C30.28 36.3307 30.472 36.976 30.472 37.776C30.472 38.3947 30.3493 38.928 30.104 39.376C29.8587 39.8133 29.544 40.176 29.16 40.464C28.776 40.7413 28.3653 40.96 27.928 41.12L30.792 45.136C30.7067 45.36 30.552 45.5627 30.328 45.744C30.1147 45.9253 29.88 46.0427 29.624 46.096L26.328 41.472C26.2107 41.4827 26.0987 41.488 25.992 41.488H24.088V46C23.832 46.0747 23.5813 46.112 23.336 46.112ZM26.552 35.824H24.088V40.112H25.992C26.3227 40.112 26.6587 40.08 27 40.016C27.352 39.9413 27.672 39.824 27.96 39.664C28.248 39.4933 28.4827 39.2587 28.664 38.96C28.8453 38.6613 28.936 38.2827 28.936 37.824C28.936 37.1733 28.712 36.6773 28.264 36.336C27.816 35.9947 27.2453 35.824 26.552 35.824ZM32.8867 46.064C32.6414 45.9787 32.4281 45.8507 32.2467 45.68C32.0761 45.4987 31.9641 45.2853 31.9107 45.04C32.1027 44.8587 32.3267 44.6293 32.5827 44.352C32.8387 44.0747 33.0894 43.744 33.3347 43.36C33.5801 42.9653 33.7827 42.5227 33.9427 42.032C34.1134 41.5413 34.1988 40.992 34.1988 40.384V38.448C34.2948 38.416 34.4068 38.3893 34.5347 38.368C34.6627 38.3467 34.7961 38.336 34.9348 38.336C35.1801 38.336 35.4201 38.3733 35.6548 38.448V42.144C35.6548 43.072 35.8041 43.7493 36.1027 44.176C36.4014 44.592 36.8708 44.8 37.5108 44.8C39.0361 44.8 39.7988 43.6853 39.7988 41.456V38.448C39.8841 38.416 39.9908 38.3893 40.1188 38.368C40.2468 38.3467 40.3801 38.336 40.5188 38.336C40.7748 38.336 41.0201 38.3733 41.2548 38.448V43.056C41.2548 43.6213 41.3401 44.064 41.5108 44.384C41.6921 44.6933 41.9908 44.848 42.4068 44.848C42.5881 44.848 42.7108 44.9227 42.7748 45.072C42.8388 45.2213 42.8708 45.3813 42.8708 45.552C42.8708 45.7227 42.8228 45.8773 42.7268 46.016C42.6414 46.1547 42.4974 46.224 42.2948 46.224C41.2708 46.224 40.5774 45.776 40.2148 44.88C39.9161 45.3173 39.5321 45.6533 39.0628 45.888C38.5934 46.112 38.0388 46.224 37.3988 46.224C35.9374 46.224 34.9721 45.5573 34.5027 44.224C34.2574 44.6187 33.9907 44.976 33.7027 45.296C33.4254 45.616 33.1534 45.872 32.8867 46.064ZM42.4576 46.224C42.319 46.224 42.207 46.16 42.1216 46.032C42.0363 45.904 41.9936 45.7387 41.9936 45.536C41.9936 45.0773 42.1856 44.848 42.5696 44.848C42.911 44.848 43.2896 44.64 43.7056 44.224C44.1216 43.7973 44.607 43.1147 45.1616 42.176L46.8736 39.28C46.8523 39.1307 46.8416 38.9707 46.8416 38.8C46.8416 38.2667 46.9376 37.872 47.1296 37.616C47.3323 37.36 47.4976 37.2053 47.6256 37.152C47.807 37.1093 47.999 37.1147 48.2016 37.168C48.415 37.2107 48.607 37.2853 48.7776 37.392C48.9483 37.4987 49.0656 37.6267 49.1296 37.776C49.087 37.968 49.007 38.1973 48.8896 38.464C48.7723 38.7307 48.5856 39.088 48.3296 39.536C48.4043 39.6533 48.5003 39.7707 48.6176 39.888C48.735 40.0053 48.879 40.1333 49.0496 40.272L50.2656 41.264C50.703 41.616 51.0283 41.984 51.2416 42.368C51.4656 42.7413 51.5776 43.1627 51.5776 43.632C51.5776 44.1973 51.4176 44.6987 51.0976 45.136C51.151 45.2533 51.1776 45.392 51.1776 45.552C51.1776 45.7547 51.1243 45.9147 51.0176 46.032C50.9216 46.16 50.783 46.224 50.6016 46.224C50.431 46.224 50.2656 46.2133 50.1056 46.192C49.9456 46.1707 49.7696 46.144 49.5776 46.112C49.2896 46.1867 48.9856 46.224 48.6656 46.224C48.2923 46.224 47.919 46.1653 47.5456 46.048C47.1723 45.9413 46.783 45.7653 46.3776 45.52C46.3563 44.9547 46.5696 44.5387 47.0176 44.272C47.6043 44.656 48.159 44.848 48.6816 44.848C49.1296 44.848 49.487 44.7307 49.7536 44.496C50.0203 44.2507 50.1536 43.9413 50.1536 43.568C50.1536 43.0987 49.8976 42.6613 49.3856 42.256L48.1696 41.296C47.9563 41.1253 47.7643 40.9493 47.5936 40.768L45.9936 43.472C45.407 44.464 44.8416 45.1733 44.2976 45.6C43.7643 46.016 43.151 46.224 42.4576 46.224ZM50.7684 46.224C50.6297 46.224 50.5177 46.16 50.4324 46.032C50.3364 45.904 50.2884 45.7387 50.2884 45.536C50.2884 45.088 50.4857 44.864 50.8804 44.864C51.6484 44.864 52.3524 44.5973 52.9924 44.064C53.6324 43.52 54.203 42.7467 54.7044 41.744V33.536C54.7044 32.4693 54.9284 31.648 55.3764 31.072C55.835 30.496 56.4964 30.2133 57.3604 30.224C58.1497 30.2347 58.763 30.5333 59.2004 31.12C59.6484 31.7067 59.8724 32.4693 59.8724 33.408C59.8724 34.9653 59.403 36.6987 58.4644 38.608C58.539 38.5973 58.6137 38.592 58.6884 38.592C59.4884 38.592 60.123 38.8747 60.5924 39.44C61.0724 40.0053 61.3124 40.7627 61.3124 41.712V43.088C61.3124 43.7067 61.387 44.1547 61.5364 44.432C61.6964 44.7093 61.9577 44.848 62.3204 44.848C62.491 44.848 62.6137 44.9173 62.6884 45.056C62.763 45.184 62.8004 45.3493 62.8004 45.552C62.8004 45.7547 62.747 45.9147 62.6404 46.032C62.5444 46.16 62.4057 46.224 62.2244 46.224C61.4564 46.224 60.8644 45.9787 60.4484 45.488C60.043 44.9867 59.8404 44.2827 59.8404 43.376V41.68C59.8404 41.136 59.7177 40.7147 59.4724 40.416C59.2377 40.1067 58.9017 39.952 58.4644 39.952C58.0377 39.952 57.6537 40.096 57.3124 40.384C56.971 40.6613 56.699 41.0453 56.4964 41.536C56.2937 42.0267 56.187 42.592 56.1764 43.232V46C56.0697 46.032 55.9524 46.0587 55.8244 46.08C55.6964 46.1013 55.5737 46.112 55.4564 46.112C55.211 46.112 54.9604 46.0747 54.7044 46V44.208C54.1817 44.8907 53.579 45.3973 52.8964 45.728C52.2137 46.0587 51.5044 46.224 50.7684 46.224ZM56.1284 33.52V39.824C56.875 38.6933 57.4457 37.5733 57.8404 36.464C58.2457 35.3547 58.4484 34.3307 58.4484 33.392C58.4484 32.7947 58.347 32.3413 58.1444 32.032C57.9524 31.712 57.6697 31.552 57.2964 31.552C56.5177 31.552 56.1284 32.208 56.1284 33.52ZM62.387 46.224C62.2483 46.224 62.1363 46.16 62.051 46.032C61.9657 45.904 61.923 45.7387 61.923 45.536C61.923 45.3227 61.9763 45.1573 62.083 45.04C62.179 44.912 62.3123 44.848 62.483 44.848C62.8243 44.848 63.1923 44.7253 63.587 44.48C63.9817 44.2347 64.3657 43.8987 64.739 43.472C64.6537 43.0773 64.5843 42.6133 64.531 42.08C64.4883 41.5467 64.4563 40.9013 64.435 40.144C64.4137 39.3867 64.403 38.4747 64.403 37.408H64.419L64.403 37.392C64.403 36.4427 64.4137 35.6373 64.435 34.976C64.4563 34.3147 64.499 33.76 64.563 33.312C64.627 32.864 64.707 32.4853 64.803 32.176C64.9097 31.856 65.043 31.568 65.203 31.312C65.4377 30.928 65.7257 30.6507 66.067 30.48C66.419 30.3093 66.803 30.224 67.219 30.224C68.051 30.224 68.691 30.592 69.139 31.328C69.587 32.064 69.811 33.0773 69.811 34.368C69.811 35.9147 69.507 37.504 68.899 39.136C68.291 40.768 67.4217 42.3253 66.291 43.808C66.4403 44.16 66.659 44.4267 66.947 44.608C67.235 44.7787 67.5657 44.864 67.939 44.864C68.0883 44.864 68.2057 44.928 68.291 45.056C68.387 45.1733 68.435 45.3387 68.435 45.552C68.435 46 68.2377 46.224 67.843 46.224C67.267 46.224 66.755 46.1013 66.307 45.856C65.859 45.6107 65.5123 45.296 65.267 44.912C64.3817 45.7867 63.4217 46.224 62.387 46.224ZM65.827 37.488C65.827 38.608 65.8323 39.5307 65.843 40.256C65.8643 40.9813 65.891 41.5787 65.923 42.048C66.7337 40.704 67.347 39.392 67.763 38.112C68.179 36.8213 68.387 35.568 68.387 34.352C68.387 33.4667 68.2857 32.7893 68.083 32.32C67.8803 31.84 67.5923 31.6 67.219 31.6C66.803 31.6 66.4883 31.8453 66.275 32.336C66.1683 32.592 66.0777 32.9173 66.003 33.312C65.939 33.696 65.891 34.2187 65.859 34.88C65.8377 35.5413 65.827 36.4107 65.827 37.488ZM68.0735 46.224C67.9135 46.224 67.7908 46.16 67.7055 46.032C67.6095 45.904 67.5615 45.7387 67.5615 45.536C67.5615 45.3227 67.6148 45.1573 67.7215 45.04C67.8282 44.9227 67.9668 44.864 68.1375 44.864C68.8948 44.864 69.5668 44.6507 70.1535 44.224C70.7508 43.7867 71.2202 43.1893 71.5615 42.432C71.9028 41.6747 72.0735 40.8107 72.0735 39.84V38.448C72.1695 38.416 72.2815 38.3893 72.4095 38.368C72.5375 38.3467 72.6708 38.336 72.8095 38.336C73.0548 38.336 73.2948 38.3733 73.5295 38.448V42.144C73.5295 43.9147 74.1748 44.8 75.4655 44.8C76.2228 44.8 76.7775 44.496 77.1295 43.888C77.4922 43.2693 77.6735 42.4267 77.6735 41.36V38.448C77.8975 38.3733 78.1375 38.336 78.3935 38.336C78.6602 38.336 78.9055 38.3733 79.1295 38.448V45.12C79.3535 44.96 79.5828 44.8053 79.8175 44.656C80.0628 44.496 80.2708 44.368 80.4415 44.272C80.6548 44.4 80.8202 44.5653 80.9375 44.768C81.0548 44.9707 81.1295 45.2053 81.1615 45.472C81.0015 45.5787 80.7935 45.7173 80.5375 45.888C80.2922 46.048 80.0415 46.2133 79.7855 46.384C79.5295 46.5547 79.3108 46.6987 79.1295 46.816V50.48C79.1295 52.976 78.2175 54.224 76.3935 54.224C75.5508 54.224 74.8895 53.9733 74.4095 53.472C73.9402 52.9707 73.7055 52.2827 73.7055 51.408C73.7055 49.456 75.0388 47.6267 77.7055 45.92V45.168C77.0975 45.872 76.2868 46.224 75.2735 46.224C74.4948 46.224 73.8495 46.032 73.3375 45.648C72.8362 45.264 72.4842 44.704 72.2815 43.968C71.8015 44.672 71.1988 45.2267 70.4735 45.632C69.7588 46.0267 68.9588 46.224 68.0735 46.224ZM75.1455 51.376C75.1455 51.8347 75.2522 52.192 75.4655 52.448C75.6788 52.7147 75.9722 52.848 76.3455 52.848C77.2522 52.848 77.7055 52.0587 77.7055 50.48V47.616C75.9988 48.8213 75.1455 50.0747 75.1455 51.376Z" fill="white"/>
</svg>
