<svg width="28" height="28" viewBox="0 0 28 28" fill="none" xmlns="http://www.w3.org/2000/svg">
<path d="M20.7717 4.74644L15.8776 2.8671C14.9505 2.51104 14.4868 2.33301 14 2.33301C13.5131 2.33301 13.0495 2.51104 12.1224 2.8671L7.22834 4.74644C4.74278 5.70092 3.5 6.17817 3.5 6.99967C3.5 7.82118 4.74278 8.29843 7.22835 9.2529L12.1224 11.1323C13.0495 11.4883 13.5131 11.6663 14 11.6663C14.4868 11.6663 14.9505 11.4883 15.8776 11.1323L20.7717 9.2529C23.2573 8.29843 24.5 7.82118 24.5 6.99967C24.5 6.17817 23.2573 5.70092 20.7717 4.74644Z" stroke="white" stroke-width="1.5" stroke-linecap="round" stroke-linejoin="round"/>
<path d="M24.5 7V21C24.5 21.8216 23.2573 22.2987 20.7717 23.2532L15.8776 25.1326C14.9505 25.4886 14.4868 25.6667 14 25.6667C13.5131 25.6667 13.0495 25.4886 12.1224 25.1326L7.22835 23.2532C4.74278 22.2987 3.5 21.8216 3.5 21V7" stroke="white" stroke-width="1.5" stroke-linecap="round" stroke-linejoin="round"/>
<path d="M14 11.667V25.667" stroke="white" stroke-width="1.5" stroke-linecap="round" stroke-linejoin="round"/>
<path d="M19.2493 4.66699L8.16602 9.33366V12.2503" stroke="white" stroke-width="1.5" stroke-linecap="round" stroke-linejoin="round"/>
<path d="M6.41602 18.7737V17.7978C6.41602 16.9866 6.41602 16.5809 6.67822 16.4055C6.94044 16.2299 7.30771 16.3897 8.04226 16.7093L9.79226 17.4705C10.1352 17.6197 10.3067 17.6943 10.403 17.8427C10.4993 17.991 10.4993 18.1803 10.4993 18.559V19.5349C10.4993 20.3461 10.4993 20.7518 10.2371 20.9272C9.97492 21.1028 9.60764 20.943 8.87311 20.6234L7.12311 19.8622C6.78017 19.713 6.6087 19.6384 6.51236 19.49C6.41602 19.3417 6.41602 19.1524 6.41602 18.7737Z" stroke="white" stroke-width="1.5" stroke-linecap="round" stroke-linejoin="round"/>
</svg>
