<svg width="25" height="15" viewBox="0 0 25 15" fill="none" xmlns="http://www.w3.org/2000/svg">
<path d="M22.0239 4.09783C23.519 5.91713 24.0384 7.64698 24.0826 8.56165C23.301 8.20418 22.4233 8.00363 21.4958 8.00363C18.6431 8.00363 16.0822 9.90052 15.4707 12.4274C15.3245 13.0315 15.2514 13.3336 15.0927 13.4584C14.934 13.5833 14.6779 13.5833 14.166 13.5833H10.8074C10.2915 13.5833 10.0336 13.5833 9.8742 13.4568C9.71483 13.3301 9.64503 13.029 9.50543 12.4269C8.92709 9.9326 6.5795 7.76447 4.13564 7.9481C3.88938 7.96665 3.76625 7.97587 3.68177 7.95708C3.5973 7.93818 3.51225 7.89023 3.34216 7.7941C2.85114 7.51678 2.34905 7.25347 1.86759 6.95982C1.19683 6.55064 0.777012 5.83141 0.750622 5.04615C0.735607 4.59922 0.992635 4.15509 1.51185 4.27728L9.00264 6.04008C9.56535 6.17249 9.8467 6.23871 10.0885 6.19363C10.3302 6.14856 10.6265 5.94587 11.2193 5.5405C12.7223 4.51271 15.1043 3.54189 17.4788 4.39959C18.1288 4.63438 18.4538 4.75178 18.639 4.75765C18.8241 4.76352 19.0955 4.68455 19.6382 4.52658C20.517 4.27082 21.3441 4.1381 22.0239 4.09783ZM22.0239 4.09783C21.0869 2.95746 19.7663 1.78194 17.9392 0.75" stroke="white" stroke-width="1.5" stroke-linecap="round" stroke-linejoin="round"/>
</svg>
