<svg width="700" height="400" viewBox="0 0 700 400" fill="none" xmlns="http://www.w3.org/2000/svg" role="img" aria-hidden="true">
  <defs>
    <linearGradient id="es-store-bg" x1="0" y1="0" x2="700" y2="400" gradientUnits="userSpaceOnUse">
      <stop stop-color="#ffffff"/>
      <stop offset="0.45" stop-color="#f9fafb"/>
      <stop offset="1" stop-color="#f9fed9"/>
    </linearGradient>
    <linearGradient id="es-store-awning" x1="210" y1="96" x2="490" y2="154" gradientUnits="userSpaceOnUse">
      <stop stop-color="#4caf50"/>
      <stop offset="1" stop-color="#265728"/>
    </linearGradient>
  </defs>
  <rect width="700" height="400" fill="url(#es-store-bg)"/>
  <ellipse cx="350" cy="348" rx="240" ry="12" fill="#4caf50" fill-opacity="0.07"/>
  <ellipse cx="350" cy="344" rx="200" ry="8" fill="#193a1b" fill-opacity="0.05"/>
  <rect x="218" y="132" width="264" height="188" rx="18" fill="#ffffff" stroke="#e5e7eb" stroke-width="2"/>
  <path d="M206 132 L350 88 L494 132 L494 150 L206 150 Z" fill="url(#es-store-awning)"/>
  <path d="M268 132 L350 98 L432 132" stroke="#ffffff" stroke-opacity="0.4" stroke-width="2" stroke-linecap="round"/>
  <rect x="258" y="168" width="72" height="84" rx="8" fill="#d7fed8" stroke="#88ca8a" stroke-width="1.5"/>
  <rect x="370" y="168" width="72" height="84" rx="8" fill="#d7fed8" stroke="#88ca8a" stroke-width="1.5"/>
  <rect x="326" y="224" width="48" height="96" rx="6" fill="#193a1b"/>
  <rect x="334" y="236" width="32" height="28" rx="4" fill="#f9fed9" fill-opacity="0.22"/>
  <circle cx="350" cy="118" r="20" fill="#ffffff" stroke="#e5e7eb" stroke-width="2"/>
  <path d="M340 118 L348 126 L364 110" stroke="#4caf50" stroke-width="2.8" stroke-linecap="round" stroke-linejoin="round" fill="none"/>
  <rect x="172" y="252" width="26" height="34" rx="6" fill="#e2725b"/>
  <ellipse cx="185" cy="252" rx="20" ry="9" fill="#88ca8a"/>
  <path d="M528 228 L544 206 L560 228 Z" fill="#4caf50" fill-opacity="0.32"/>
  <circle cx="124" cy="152" r="5" fill="#4caf50" fill-opacity="0.2"/>
  <circle cx="586" cy="178" r="7" fill="#4caf50" fill-opacity="0.14"/>
</svg>
