<svg width="378" height="568" viewBox="0 0 378 568" fill="none" xmlns="http://www.w3.org/2000/svg">
<g clip-path="url(#paint0_diamond_765_982_clip_path)" data-figma-skip-parse="true"><g transform="matrix(-6.75255e-09 0.235938 -0.157015 -2.12346e-09 189.545 293.285)"><rect x="0" y="0" width="1247.29" height="1213.54" fill="url(#paint0_diamond_765_982)" opacity="1" shape-rendering="crispEdges"/><rect x="0" y="0" width="1247.29" height="1213.54" transform="scale(1 -1)" fill="url(#paint0_diamond_765_982)" opacity="1" shape-rendering="crispEdges"/><rect x="0" y="0" width="1247.29" height="1213.54" transform="scale(-1 1)" fill="url(#paint0_diamond_765_982)" opacity="1" shape-rendering="crispEdges"/><rect x="0" y="0" width="1247.29" height="1213.54" transform="scale(-1)" fill="url(#paint0_diamond_765_982)" opacity="1" shape-rendering="crispEdges"/></g></g><path d="M0 0H358C369.046 0 378 8.95431 378 20V548C378 559.046 369.046 568 358 568H0V0Z" data-figma-gradient-fill="{&#34;type&#34;:&#34;GRADIENT_DIAMOND&#34;,&#34;stops&#34;:[{&#34;color&#34;:{&#34;r&#34;:0.29803922772407532,&#34;g&#34;:0.68627452850341797,&#34;b&#34;:0.31372550129890442,&#34;a&#34;:1.0},&#34;position&#34;:0.0},{&#34;color&#34;:{&#34;r&#34;:0.20617109537124634,&#34;g&#34;:0.47473606467247009,&#34;b&#34;:0.21702221035957336,&#34;a&#34;:1.0},&#34;position&#34;:0.31249088048934937},{&#34;color&#34;:{&#34;r&#34;:0.12432494014501572,&#34;g&#34;:0.28627452254295349,&#34;b&#34;:0.13086836040019989,&#34;a&#34;:1.0},&#34;position&#34;:1.0}],&#34;stopsVar&#34;:[{&#34;color&#34;:{&#34;r&#34;:0.29803922772407532,&#34;g&#34;:0.68627452850341797,&#34;b&#34;:0.31372550129890442,&#34;a&#34;:1.0},&#34;position&#34;:0.0},{&#34;color&#34;:{&#34;r&#34;:0.20617109537124634,&#34;g&#34;:0.47473606467247009,&#34;b&#34;:0.21702221035957336,&#34;a&#34;:1.0},&#34;position&#34;:0.31249088048934937},{&#34;color&#34;:{&#34;r&#34;:0.12432494014501572,&#34;g&#34;:0.28627452254295349,&#34;b&#34;:0.13086836040019989,&#34;a&#34;:1.0},&#34;position&#34;:1.0}],&#34;transform&#34;:{&#34;m00&#34;:-1.3505101378541440e-05,&#34;m01&#34;:-314.030761718750,&#34;m02&#34;:346.56002807617188,&#34;m10&#34;:471.87689208984375,&#34;m11&#34;:-4.2469209802220576e-06,&#34;m12&#34;:57.346183776855469},&#34;opacity&#34;:1.0,&#34;blendMode&#34;:&#34;NORMAL&#34;,&#34;visible&#34;:true}"/>
<defs>
<clipPath id="paint0_diamond_765_982_clip_path"><path d="M0 0H358C369.046 0 378 8.95431 378 20V548C378 559.046 369.046 568 358 568H0V0Z"/></clipPath><linearGradient id="paint0_diamond_765_982" x1="0" y1="0" x2="500" y2="500" gradientUnits="userSpaceOnUse">
<stop stop-color="#4CAF50"/>
<stop offset="0.312491" stop-color="#357937"/>
<stop offset="1" stop-color="#204921"/>
</linearGradient>
</defs>
</svg>
